<?xml version="1.0" standalone="no"?>
<svg xmlns="http://www.w3.org/2000/svg" viewBox="0 0 135.481 29" width="135.481" height="29"><g fill="#e12454" color="#e12454" transform="translate(0, 0) scale(0.6041667)"><svg width="48.0" height="48.0" x="0.0" y="0.0" viewBox="0 0 48 48"><g><path d="M20.3,34.2L12.9,29v-3.2c0-1.3-0.7-2.3-1.8-2.9v-4c0-2.3-1.9-4.2-4.2-4.2c-2.3,0-4.2,1.9-4.2,4.2v13.2   c0,1.4,0.7,2.7,1.9,3.5l9.3,6.2v5c0,0.6,0.4,1,1,1c0.6,0,1-0.4,1-1v-5.6c0-0.3-0.2-0.6-0.4-0.8L5.6,34c-0.6-0.4-1-1.1-1-1.8V18.9   c0-1.2,1-2.2,2.2-2.2s2.2,1,2.2,2.2v3.7c-1.6,0.2-2.8,1.6-2.8,3.2v4.9c0,0.6,0.4,1,1,1s1-0.4,1-1v-4.9c0-0.7,0.6-1.3,1.3-1.3   c0.7,0,1.3,0.6,1.3,1.3v3.7c0,0,0,0.7,0.4,0.8c0.4,0.1,0,0,0.1,0.1l7.9,5.5c0.6,0.4,1,1.1,1,1.8v9.3c0,0.6,0.4,1,1,1s1-0.4,1-1   v-9.3C22.2,36.2,21.5,34.9,20.3,34.2z"></path><path d="M41.1,14.7c-2.3,0-4.2,1.9-4.2,4.2v4c-1,0.5-1.8,1.6-1.8,2.9V29l-7.5,5.2c-1.2,0.8-1.9,2.1-1.9,3.5v9.3c0,0.6,0.4,1,1,1   c0.6,0,1-0.4,1-1v-9.3c0-0.7,0.4-1.4,1-1.8l7.9-5.5c0,0,0.4-0.3,0.4-0.8v-3.7c0-0.7,0.6-1.3,1.3-1.3c0.7,0,1.3,0.6,1.3,1.3v4.9   c0,0.6,0.4,1,1,1c0.6,0,1-0.4,1-1v-4.9c0-1.6-1.2-3-2.8-3.2v-3.7c0-1.2,1-2.2,2.2-2.2c1.2,0,2.2,1,2.2,2.2v13.2   c0,0.7-0.4,1.4-1,1.8l-9.7,6.5c-0.3,0.2-0.4,0.5-0.4,0.8v5.6c0,0.6,0.4,1,1,1c0.6,0,1-0.4,1-1v-5l9.3-6.2c1.2-0.8,1.9-2.1,1.9-3.5   V18.9C45.3,16.6,43.4,14.7,41.1,14.7z"></path><path d="M33.5,18.6c0-4.9-7.8-16.7-8.7-18.1c-0.2-0.3-0.5-0.4-0.8-0.4c-0.3,0-0.6,0.2-0.8,0.4c-0.9,1.3-8.7,13.2-8.7,18.1   c0,5.2,4.3,9.5,9.5,9.5C29.2,28.1,33.5,23.9,33.5,18.6z M24,26.1c-4.1,0-7.5-3.4-7.5-7.5c0-3.2,4.8-11.5,7.5-15.7   c2.7,4.2,7.5,12.5,7.5,15.7C31.5,22.8,28.1,26.1,24,26.1z"></path><path d="M24,22.1c-1.9,0-3.5-1.6-3.5-3.5c0-0.6-0.4-1-1-1s-1,0.4-1,1c0,3,2.5,5.5,5.5,5.5c0.6,0,1-0.4,1-1   C25,22.6,24.6,22.1,24,22.1z"></path></g></svg></g><line x1="41" y1="1" x2="41" y2="28" stroke="#000000" stroke-linecap="round"></line><path fill="#000000" fill-rule="nonzero" d="M14.04 2.71L13.39 4.10Q10.92 2.66 7.92 2.45L7.92 2.45L7.92 17.81L6.14 17.81L6.14 2.45Q3.19 2.64 0.65 4.10L0.65 4.10L0 2.71Q3.12 0.86 7.01 0.86L7.01 0.86Q10.97 0.86 14.04 2.71L14.04 2.71ZM22.87 5.09Q24.65 5.09 26.09 5.89Q27.53 6.70 28.34 8.16Q29.16 9.62 29.16 11.50L29.16 11.50Q29.16 13.37 28.34 14.83Q27.53 16.30 26.09 17.11Q24.65 17.93 22.87 17.93L22.87 17.93Q21.29 17.93 20.03 17.26Q18.77 16.58 18 15.31L18 15.31L18 17.81L16.37 17.81L16.37 0L18.07 0L18.07 7.58Q18.86 6.36 20.10 5.72Q21.34 5.09 22.87 5.09L22.87 5.09ZM22.75 16.42Q24.07 16.42 25.15 15.80Q26.23 15.19 26.84 14.06Q27.46 12.94 27.46 11.50L27.46 11.50Q27.46 10.06 26.84 8.93Q26.23 7.80 25.15 7.19Q24.07 6.58 22.75 6.58L22.75 6.58Q21.41 6.58 20.34 7.19Q19.27 7.80 18.66 8.93Q18.05 10.06 18.05 11.50L18.05 11.50Q18.05 12.94 18.66 14.06Q19.27 15.19 20.34 15.80Q21.41 16.42 22.75 16.42L22.75 16.42ZM42.46 5.18L44.16 5.18L44.16 17.81L42.53 17.81L42.53 15.31Q41.76 16.58 40.50 17.26Q39.24 17.93 37.66 17.93L37.66 17.93Q35.88 17.93 34.44 17.11Q33 16.30 32.18 14.83Q31.37 13.37 31.37 11.50L31.37 11.50Q31.37 9.62 32.18 8.16Q33 6.70 34.44 5.89Q35.88 5.09 37.66 5.09L37.66 5.09Q39.19 5.09 40.43 5.72Q41.66 6.36 42.46 7.58L42.46 7.58L42.46 5.18ZM37.80 16.42Q39.12 16.42 40.19 15.80Q41.26 15.19 41.87 14.06Q42.48 12.94 42.48 11.50L42.48 11.50Q42.48 10.06 41.87 8.93Q41.26 7.80 40.19 7.19Q39.12 6.58 37.80 6.58L37.80 6.58Q36.46 6.58 35.39 7.19Q34.32 7.80 33.71 8.93Q33.10 10.06 33.10 11.50L33.10 11.50Q33.10 12.94 33.71 14.06Q34.32 15.19 35.39 15.80Q36.46 16.42 37.80 16.42L37.80 16.42ZM50.54 7.66Q51.14 6.38 52.33 5.74Q53.52 5.09 55.27 5.09L55.27 5.09L55.27 6.74L54.86 6.72Q52.87 6.72 51.74 7.94Q50.62 9.17 50.62 11.38L50.62 11.38L50.62 17.81L48.91 17.81L48.91 5.18L50.54 5.18L50.54 7.66ZM68.04 5.18L69.74 5.18L69.74 17.81L68.11 17.81L68.11 15.31Q67.34 16.58 66.08 17.26Q64.82 17.93 63.24 17.93L63.24 17.93Q61.46 17.93 60.02 17.11Q58.58 16.30 57.77 14.83Q56.95 13.37 56.95 11.50L56.95 11.50Q56.95 9.62 57.77 8.16Q58.58 6.70 60.02 5.89Q61.46 5.09 63.24 5.09L63.24 5.09Q64.78 5.09 66.01 5.72Q67.25 6.36 68.04 7.58L68.04 7.58L68.04 5.18ZM63.38 16.42Q64.70 16.42 65.77 15.80Q66.84 15.19 67.45 14.06Q68.06 12.94 68.06 11.50L68.06 11.50Q68.06 10.06 67.45 8.93Q66.84 7.80 65.77 7.19Q64.70 6.58 63.38 6.58L63.38 6.58Q62.04 6.58 60.97 7.19Q59.90 7.80 59.29 8.93Q58.68 10.06 58.68 11.50L58.68 11.50Q58.68 12.94 59.29 14.06Q59.90 15.19 60.97 15.80Q62.04 16.42 63.38 16.42L63.38 16.42ZM79.08 8.21Q81.72 8.35 83.10 9.64Q84.48 10.92 84.48 12.98L84.48 12.98Q84.48 14.42 83.78 15.54Q83.09 16.66 81.72 17.30Q80.35 17.95 78.38 17.95L78.38 17.95Q76.56 17.95 74.94 17.36Q73.32 16.78 72.34 15.79L72.34 15.79L73.18 14.42Q74.02 15.29 75.41 15.83Q76.80 16.37 78.38 16.37L78.38 16.37Q80.45 16.37 81.58 15.47Q82.70 14.57 82.70 12.98L82.70 12.98Q82.70 11.42 81.58 10.54Q80.45 9.65 78.17 9.65L78.17 9.65L76.97 9.65L76.97 8.38L81.62 2.54L73.03 2.54L73.03 1.01L83.83 1.01L83.83 2.23L79.08 8.21Z" transform="translate(51, 5.596)"></path></svg>